<?xml version="1.0" encoding="utf-8"?>
<!-- Generator: Adobe Illustrator 19.0.1, SVG Export Plug-In . SVG Version: 6.00 Build 0)  -->
<svg version="1.1" id="Layer_1" xmlns="http://www.w3.org/2000/svg" xmlns:xlink="http://www.w3.org/1999/xlink" x="0px" y="0px"
	 viewBox="1488 51 512 411" style="enable-background:new 1488 51 512 411;" xml:space="preserve">
<style type="text/css">
	.st0{fill:#FF0000;}
</style>
<g>
	<path class="st0" d="M1579.6,384c0,0-3-9.7-8.2-14.9s-45.7-45.7-51.7-51.7c-6-6-17.7-17.6-17.7-34.6c0-17,14.3-29.1,31.6-36
		c17.3-6.9,298.2-120.9,319.1-129.7s50.8-22.1,64.3-28.6c13.6-6.5,52-24.6,53.3-25.3c1.3-0.7,2-1.1,2.6-1.1c0.6,0,1.2,0.5,1.2,1.2
		c0,0.7-0.4,1.6-0.6,2.1c-0.1,0.5-11.8,35-21,46.8c-9.2,11.8-13.7,16.8-57.8,32.3c-44.1,15.5-338.4,118.8-345.9,121.7
		c-7.4,2.9-24.2,8.1-24.2,20.5c0,10,10,17.8,12.9,20.3s82,76.8,82,76.8L1579.6,384L1579.6,384z"/>
	<path class="st0" d="M1544.9,303.8c0,0-7.2-6.7-8.2-7.6c-1-1-3.1-4.6-3.1-7.2c0-2.6,0.5-8.8,11.4-12.2
		c10.9-3.4,265.3-87.1,279.2-91.5c13.9-4.4,95.9-31.6,110.5-38.1c3.1-1.3,3.6-1.7,4.1-1.7c0.5,0,1.1,0.3,1.1,1
		c0,0.7-0.3,1.3-0.6,1.7s-14.3,29.3-22.5,38.3c-8.2,9.1-15.6,15.5-30.6,19.3c-15,3.8-249.1,66.7-250.6,67.2
		c-1.5,0.4-3.3,1.8-3.3,3.7c0,3.1,2.5,3.3,2.5,3.3L1544.9,303.8z"/>
	<path class="st0" d="M1550.1,308.4l20.7,19.3l107.4-20.2c0,0-2.8-1.8-2.8-3.8s1.6-3.4,3.6-3.8c2-0.4,157.7-30.6,167.4-32.3
		c9.7-1.7,22.4-4.5,32.9-17.1c10.4-12.6,20.5-29.4,20.8-29.9c0.3-0.5,0.5-0.8,0.5-1.1s-0.2-1.1-1-1.1c-0.8,0-1.2,0.2-2,0.5
		C1896.8,219.2,1550.1,308.4,1550.1,308.4z"/>
	<path class="st0" d="M1854.6,280.1c-0.4,0.1-278.9,52.3-278.9,52.3l24.1,22.3l128.8-16.2c0,0-2.4-0.9-2.4-3.4s2.4-3.4,3.8-3.7
		c1.4-0.2,66.3-9.8,73.9-10.9c7.6-1.1,20.2-3.8,30.8-14.9c10.6-11.1,21-23.5,21.4-24c0.4-0.5,0.5-0.8,0.5-1c0-0.2-0.3-0.7-0.9-0.7
		C1855.5,279.8,1855.1,280,1854.6,280.1z"/>
	<polygon class="st0" points="1605.6,359.9 1631.4,384.1 1801.9,384.1 1738.1,344.4 	"/>
	<path class="st0" d="M1596.8,402.5c0.7-0.1,6.9-1,6.9-1v-7.2H1560v7.2c0,0,6.1,0.9,6.9,1c0.7,0.1,4,0.8,4,4.4v9.1h-33.6V407
		c0-3.6,3.2-4.4,4-4.4s6.9-1,6.9-1v-7.2h-43.6v7.2c0,0,6.1,0.9,6.9,1s4,0.8,4,4.4v29.4c0,3.6-3.2,4.4-4,4.4s-6.9,0.8-6.9,0.8v7.2
		h43.6v-7.2c0,0-6.1-0.7-6.9-0.8s-4-0.8-4-4.4v-9.2h33.6v9.2c0,3.6-3.2,4.4-4,4.4c-0.7,0.1-6.9,0.8-6.9,0.8v7.2h43.6v-7.2
		c0,0-6.1-0.7-6.9-0.8c-0.7-0.1-4-0.8-4-4.4V407C1592.8,403.3,1596,402.6,1596.8,402.5z"/>
	<path class="st0" d="M1650.4,392.6c-28.1,0-44.5,10.2-44.5,29.1s16.4,29.1,44.5,29.1c28.1,0,44.5-10.2,44.5-29.1
		S1678.5,392.6,1650.4,392.6z M1650.4,440.7c-5.5,0-19.3,0.2-19.3-19.1s13.8-19.1,19.3-19.1s19.3-0.2,19.3,19.1
		S1655.9,440.7,1650.4,440.7z"/>
	<path class="st0" d="M1758.5,401.7v-7.4h35v7.3c0,0-6.1,0.6-7.3,0.8c-1.2,0.2-3.8,1.3-3.8,4.7c0,3.3,0,39.7,0,41.8c0,0-25.8,0-27,0
		s-3.2-0.4-4.3-1.7c-1.1-1.3-29.6-38.6-29.6-38.6c0,3.3,0,26.2,0,28.3s2.1,3.5,3.6,3.8c1.5,0.2,7.4,0.9,7.4,0.9v7.3v-7.3v7.3l-35,0
		v-7.3c0,0,6.1-0.6,7.3-0.8c1.2-0.2,3.8-1.3,3.8-4.7c0-3.3,0-27.6,0-29.8c0-2.1-2.1-3.5-3.6-3.8c-1.5-0.2-7.4-0.8-7.4-0.8v-7.4
		c0,0,36.8,0,38.1,0s3.2,0.4,4.3,1.7c1.1,1.3,29.6,38.6,29.6,38.6c0-3.3,0-26.2,0-28.3s-2.1-3.5-3.6-3.8
		C1764.3,402.3,1758.5,401.7,1758.5,401.7v-7.4"/>
	<path class="st0" d="M1853.6,394.3c-10.6,0-56.4,0-56.4,0v7.4c0,0,5.8,0.6,7.4,0.8c1.5,0.2,3.6,1.6,3.6,3.8c0,2.1,0,26.4,0,29.8
		c0,3.3-2.6,4.5-3.8,4.7c-1.2,0.2-7.3,0.8-7.3,0.8v7.3l56.4,0c18.3,0,33.7-8.5,33.7-27.5C1887.3,402.3,1869.9,394.3,1853.6,394.3z
		 M1848.1,438.4h-18.7v-33.7c0,0,11.9,0,18.8,0s13.9,2.3,13.9,16.6S1856.6,438.4,1848.1,438.4z"/>
	<path class="st0" d="M1978.7,440.7c-2.8-0.3-4.3-3-4.6-3.5c-0.4-0.5-25.7-39.3-26.7-40.7c-1-1.5-3-2.1-4-2.1c-1,0-42.1,0-42.1,0
		v7.4c0,0,8.9,0.9,10.1,1c1.1,0.1,2.3,2.2,2.3,2.9s-0.4,1.4-0.6,1.8c-0.2,0.4-18.1,29.6-19.1,31.1c-0.9,1.5-2.5,2.1-3.7,2.2
		c-1.2,0.1-7.1,0.6-7.1,0.6v7.4h34.7v-7.2l-7-0.9c-1.6-0.3-2-2.1-2-2.5c0-0.4,0.2-1.1,0.7-1.8c0.1-0.2,1.1-1.8,2.6-4.2h33.5
		c1.6,2.4,2.7,4.1,2.8,4.2c0.4,0.7,0.7,1.4,0.7,1.8c0,0.4-0.4,2.2-2,2.5l-8,0.6v7.4h47.1v-7.2C1986,441.6,1981.5,441,1978.7,440.7z
		 M1917.8,422.6c5-8.1,10.3-16.7,10.3-16.7s5.7,8.6,11,16.7H1917.8z"/>
</g>
</svg>
